<svg t="1712822854815" class="icon" viewBox="0 0 1024 1024" version="1.1" xmlns="http://www.w3.org/2000/svg" p-id="11092" width="200" height="200"><path d="M145.6 0C100.8 0 64 36.8 64 81.6v860.8c0 44.8 36.8 81.6 81.6 81.6h732.8c44.8 0 81.6-36.8 81.6-81.6V324.8L657.6 0h-512z" fill="#8199AF" p-id="11093"></path><path d="M960 326.4v16H755.2S654.4 321.6 656 235.2c0 0 3.2 91.2 96 91.2h208z" fill="#617F9B" p-id="11094"></path><path d="M657.6 0v233.6c0 25.6 17.6 92.8 97.6 92.8H960L657.6 0z" fill="#FFFFFF" p-id="11095"></path><path d="M344 862.4H243.2c-9.6 0-17.6-8-17.6-17.6V688c0-9.6 8-17.6 17.6-17.6H344c4.8 0 9.6 4.8 9.6 11.2 0 6.4-4.8 9.6-9.6 9.6h-94.4v62.4h91.2c6.4 0 11.2 4.8 11.2 11.2 0 6.4-4.8 9.6-11.2 9.6h-91.2v67.2H344c4.8 0 9.6 4.8 9.6 9.6 0 6.4-4.8 11.2-9.6 11.2z m193.6 1.6c-4.8 0-8 0-9.6-3.2l-59.2-80-60.8 80c-1.6 3.2-4.8 3.2-8 3.2-6.4 0-11.2-4.8-11.2-11.2 0-1.6 0-4.8 1.6-6.4l62.4-81.6-57.6-78.4c-1.6-1.6-3.2-3.2-3.2-6.4 0-4.8 4.8-11.2 12.8-11.2 3.2 0 6.4 1.6 8 4.8l56 73.6 54.4-73.6c1.6-3.2 4.8-4.8 9.6-4.8S544 673.6 544 680c0 3.2 0 4.8-1.6 6.4l-57.6 76.8 60.8 83.2c1.6 1.6 3.2 4.8 3.2 6.4 0 6.4-6.4 11.2-11.2 11.2z m171.2-1.6h-99.2c-9.6 0-17.6-8-17.6-17.6V688c0-9.6 8-17.6 17.6-17.6h99.2c6.4 0 11.2 4.8 11.2 11.2 0 6.4-4.8 9.6-11.2 9.6H616v62.4h91.2c6.4 0 11.2 4.8 11.2 11.2 0 6.4-4.8 9.6-11.2 9.6H616v67.2h92.8c6.4 0 11.2 4.8 11.2 9.6 0 6.4-4.8 11.2-11.2 11.2z" fill="#FFFFFF" p-id="11096"></path></svg>